# xmcd CD database file
#
# Track frame offsets:
#	150
#	69925
#	87302
#	120780
#	154402
#	192240
#
# Disc length: 2970 seconds
#
# Revision: 4
# Processed by: cddbd v1.5PL3 Copyright (c) Steve Scherf et al.
# Submitted via: CDex 1.40Release
#
DISCID=430b9806
DTITLE=vert - the koln konzert
DYEAR=1900
DGENRE=Blues
TTITLE0=part one
TTITLE1=part two
TTITLE2=part three
TTITLE3=part four
TTITLE4=part five
TTITLE5=an annotated history of slapstick
EXTD=ID3G: 0
EXTT0=
EXTT1=
EXTT2=
EXTT3=
EXTT4=
EXTT5=
PLAYORDER=
